<?xml version="1.0" encoding="UTF-8"?>
<svg width="22px" height="18px" viewBox="0 0 22 18" version="1.1" xmlns="http://www.w3.org/2000/svg" xmlns:xlink="http://www.w3.org/1999/xlink">
    <!-- Generator: Sketch 53.2 (72643) - https://sketchapp.com -->
    <title>baseline-local_activity-24px</title>
    <desc>Created with Sketch.</desc>
    <g id="Visual" stroke="none" stroke-width="1" fill="none" fill-rule="evenodd">
        <g id="Wallet-Copy" transform="translate(-177.000000, -625.000000)">
            <g id="baseline-local_activity-24px" transform="translate(175.000000, 621.000000)">
                <polygon id="Shape" points="0 0 26 0 26 26 0 26"></polygon>
                <path d="M21.6666667,13 C21.6666667,11.8083333 22.6416667,10.8333333 23.8333333,10.8333333 L23.8333333,6.5 C23.8333333,5.30833333 22.8583333,4.33333333 21.6666667,4.33333333 L4.33333333,4.33333333 C3.14166667,4.33333333 2.1775,5.30833333 2.1775,6.5 L2.1775,10.8333333 C3.36916667,10.8333333 4.33333333,11.8083333 4.33333333,13 C4.33333333,14.1916667 3.36916667,15.1666667 2.16666667,15.1666667 L2.16666667,19.5 C2.16666667,20.6916667 3.14166667,21.6666667 4.33333333,21.6666667 L21.6666667,21.6666667 C22.8583333,21.6666667 23.8333333,20.6916667 23.8333333,19.5 L23.8333333,15.1666667 C22.6416667,15.1666667 21.6666667,14.1916667 21.6666667,13 Z M16.0210674,17.3333333 L13.0042135,15.294697 L9.98735955,17.3333333 L10.8974719,13.6815152 L8.125,11.297197 L11.6980337,11.0756061 L13.0042135,7.58333333 L14.3019663,11.0844697 L17.875,11.3060606 L15.1025281,13.6903788 L16.0210674,17.3333333 Z" id="Shape" fill="#000000" fill-rule="nonzero"></path>
            </g>
        </g>
    </g>
</svg>