<?xml version="1.0" encoding="UTF-8"?>
<svg width="20px" height="18px" viewBox="0 0 20 18" version="1.1" xmlns="http://www.w3.org/2000/svg" xmlns:xlink="http://www.w3.org/1999/xlink">
    <!-- Generator: Sketch 53.2 (72643) - https://sketchapp.com -->
    <title>round-store-24px</title>
    <desc>Created with Sketch.</desc>
    <g id="Visual" stroke="none" stroke-width="1" fill="none" fill-rule="evenodd">
        <g id="Events-Copy-4" transform="translate(-53.000000, -625.000000)">
            <g id="round-store-24px" transform="translate(50.000000, 621.000000)">
                <polygon id="Shape" points="0 0 26 0 26 26 0 26"></polygon>
                <path d="M5.41666667,6.5 L20.5833333,6.5 C21.1791667,6.5 21.6666667,6.0125 21.6666667,5.41666667 C21.6666667,4.82083333 21.1791667,4.33333333 20.5833333,4.33333333 L5.41666667,4.33333333 C4.82083333,4.33333333 4.33333333,4.82083333 4.33333333,5.41666667 C4.33333333,6.0125 4.82083333,6.5 5.41666667,6.5 Z M21.84,8.45 C21.7425,7.95166667 21.2983333,7.58333333 20.7783333,7.58333333 L5.22166667,7.58333333 C4.70166667,7.58333333 4.2575,7.95166667 4.16,8.45 L3.07666667,13.8666667 C2.94666667,14.5383333 3.45583333,15.1666667 4.13833333,15.1666667 L4.33333333,15.1666667 L4.33333333,20.5833333 C4.33333333,21.1791667 4.82083333,21.6666667 5.41666667,21.6666667 L14.0833333,21.6666667 C14.6791667,21.6666667 15.1666667,21.1791667 15.1666667,20.5833333 L15.1666667,15.1666667 L19.5,15.1666667 L19.5,20.5833333 C19.5,21.1791667 19.9875,21.6666667 20.5833333,21.6666667 C21.1791667,21.6666667 21.6666667,21.1791667 21.6666667,20.5833333 L21.6666667,15.1666667 L21.8616667,15.1666667 C22.5441667,15.1666667 23.0533333,14.5383333 22.9233333,13.8666667 L21.84,8.45 Z M13,19.5 L6.5,19.5 L6.5,15.1666667 L13,15.1666667 L13,19.5 Z" id="Shape" fill="#000000" fill-rule="nonzero"></path>
            </g>
        </g>
    </g>
</svg>