<?xml version="1.0" encoding="UTF-8"?>
<svg width="22px" height="22px" viewBox="0 0 22 22" version="1.1" xmlns="http://www.w3.org/2000/svg" xmlns:xlink="http://www.w3.org/1999/xlink">
    <!-- Generator: Sketch 53.2 (72643) - https://sketchapp.com -->
    <title>sharp-account_circle-24px</title>
    <desc>Created with Sketch.</desc>
    <g id="Visual" stroke="none" stroke-width="1" fill="none" fill-rule="evenodd">
        <g id="Event---See-All-Copy-15" transform="translate(-302.000000, -623.000000)">
            <g id="sharp-account_circle-24px" transform="translate(300.000000, 621.000000)">
                <polygon id="Shape" points="0 0 26 0 26 26 0 26"></polygon>
                <path d="M13,2.16666667 C7.02,2.16666667 2.16666667,7.02 2.16666667,13 C2.16666667,18.98 7.02,23.8333333 13,23.8333333 C18.98,23.8333333 23.8333333,18.98 23.8333333,13 C23.8333333,7.02 18.98,2.16666667 13,2.16666667 Z M13,5.41666667 C14.7983333,5.41666667 16.25,6.86833333 16.25,8.66666667 C16.25,10.465 14.7983333,11.9166667 13,11.9166667 C11.2016667,11.9166667 9.75,10.465 9.75,8.66666667 C9.75,6.86833333 11.2016667,5.41666667 13,5.41666667 Z M13,20.8 C10.2916667,20.8 7.8975,19.4133333 6.5,17.3116667 C6.5325,15.1558333 10.8333333,13.975 13,13.975 C15.1558333,13.975 19.4675,15.1558333 19.5,17.3116667 C18.1025,19.4133333 15.7083333,20.8 13,20.8 Z" id="Shape" fill="#000000" fill-rule="nonzero"></path>
            </g>
        </g>
    </g>
</svg>